<?xml version="1.0" encoding="UTF-8"?>
<svg width="33px" height="31px" viewBox="0 0 33 31" version="1.1" xmlns="http://www.w3.org/2000/svg" xmlns:xlink="http://www.w3.org/1999/xlink">
    <!-- Generator: Sketch 61.2 (89653) - https://sketch.com -->
    <title>-mockplus-</title>
    <desc>Created with Sketch.</desc>
    <g id="页面" stroke="none" stroke-width="1" fill="none" fill-rule="evenodd">
        <g id="嘉宾首页" transform="translate(-171.000000, -1086.000000)" fill="#C4C6CF" fill-rule="nonzero">
            <g id="-mockplus-dup-|C34CED88-3014-46FC-B19D-A591CC9C2D39|通用/导航栏/工作台" transform="translate(0.000000, 1086.000000)">
                <g id="通用/导航栏/工作台">
                    <g id="编组-7">
                        <g id="编组-5备份" transform="translate(163.000000, 0.000000)">
                            <g id="编组" transform="translate(7.500000, 0.000000)">
                                <g id="-mockplus-dup-|3F021D89-FEFA-4EF1-9F8D-9D5073FAD7EB|icon/dh/sy/选中" transform="translate(0.500000, 0.000000)">
                                    <g id="icon/dh/sy/选中" transform="translate(4.000000, 2.000000)">
                                        <path d="M4.5,2.5 L4.5,6.25 C4.5,7.49264069 5.50735931,8.5 6.75,8.5 C7.99264069,8.5 9,7.49264069 9,6.25 L9,2.5 L16,2.5 L16,6.25 C16,7.49264069 17.0073593,8.5 18.25,8.5 C19.4926407,8.5 20.5,7.49264069 20.5,6.25 L20.5,2.5 L21.5,2.5 C23.1568542,2.5 24.5,3.84314575 24.5,5.5 L24.5,23.5 C24.5,25.1568542 23.1568542,26.5 21.5,26.5 L3.5,26.5 C1.84314575,26.5 0.5,25.1568542 0.5,23.5 L0.5,5.5 C0.5,3.84314575 1.84314575,2.5 3.5,2.5 L4.5,2.5 Z M18.097611,11.5419876 C17.5016904,10.9665137 16.5520876,10.9830891 15.9766137,11.5790097 L15.9766137,11.5790097 L11.4599203,16.2547431 L9.66298481,14.5180725 C9.06706421,13.9425986 8.11746139,13.959174 7.54198756,14.5550946 C6.96651372,15.1510152 6.9830891,16.100618 7.5790097,16.6760919 L7.5790097,16.6760919 L10.8160388,19.8020545 C11.2133192,20.1857038 11.8463877,20.1746535 12.230037,19.7773731 L12.230037,19.7773731 L18.1346331,13.6629848 C18.710107,13.0670642 18.6935316,12.1174614 18.097611,11.5419876 Z M6.75,0.5 C7.44035594,0.5 8,1.05964406 8,1.75 L8,6.25 C8,6.94035594 7.44035594,7.5 6.75,7.5 C6.05964406,7.5 5.5,6.94035594 5.5,6.25 L5.5,1.75 C5.5,1.05964406 6.05964406,0.5 6.75,0.5 Z M18.25,0.5 C18.9403559,0.5 19.5,1.05964406 19.5,1.75 L19.5,6.25 C19.5,6.94035594 18.9403559,7.5 18.25,7.5 C17.5596441,7.5 17,6.94035594 17,6.25 L17,1.75 C17,1.05964406 17.5596441,0.5 18.25,0.5 Z" id="形状结合"></path>
                                    </g>
                                </g>
                            </g>
                        </g>
                    </g>
                </g>
            </g>
        </g>
    </g>
</svg>