<?xml version="1.0" encoding="UTF-8"?>
<svg width="34px" height="31px" viewBox="0 0 34 31" version="1.1" xmlns="http://www.w3.org/2000/svg" xmlns:xlink="http://www.w3.org/1999/xlink">
    <!-- Generator: Sketch 61.2 (89653) - https://sketch.com -->
    <title>-mockplus-</title>
    <desc>Created with Sketch.</desc>
    <g id="页面" stroke="none" stroke-width="1" fill="none" fill-rule="evenodd">
        <g id="嘉宾首页" transform="translate(-56.000000, -1086.000000)" fill="#DE2D28">
            <g id="-mockplus-dup-|C34CED88-3014-46FC-B19D-A591CC9C2D39|通用/导航栏/工作台" transform="translate(0.000000, 1086.000000)">
                <g id="通用/导航栏/工作台">
                    <g id="编组-7">
                        <g id="编组-5" transform="translate(56.000000, 0.000000)">
                            <g id="编组" transform="translate(0.500000, 0.000000)">
                                <g id="-mockplus-dup-|7B96916C-E5C8-4685-993D-8B5573230F66|icon/dh/sy/选中">
                                    <g id="icon/dh/sy/选中" transform="translate(4.000000, 3.000000)">
                                        <g id="编组" transform="translate(0.500000, 0.000000)">
                                            <path d="M17.3905716,10.2155184 C16.9421738,9.81690298 16.4820427,9.39515542 16.0225071,8.96201969 C15.5642223,8.53273933 15.1720789,8.16235712 14.8243971,7.83052858 L13.9059812,6.98641066 C13.6535359,6.7506401 13.5168754,6.6224936 13.4722649,6.57821618 C13.0571909,6.19454779 12.5875897,6 12.0764453,6 C12.0473502,6 12.0183445,6.00050416 11.989309,6.00186838 C11.430457,6.02805523 10.9668416,6.21661237 10.5736559,6.57673335 C10.5109392,6.639131 10.3708837,6.77080664 10.1001535,7.02457879 C9.82570083,7.28158352 9.51259366,7.56886772 9.16952774,7.87786064 L9.01422491,8.01872983 C8.68432178,8.31885537 8.3254427,8.64531605 7.93568177,8.99784494 C7.49255499,9.40162058 7.03432976,9.81900861 6.58634884,10.2385913 C5.28156682,11.4209732 4.14123013,12.4569995 3,13.497059 L3,22.8529985 C3,23.2239145 3.12719048,23.5011154 3.38848042,23.6995482 C3.65048508,23.89893 4.0136525,24 4.46788719,24 L19.5786887,24 C20.0135962,23.9857351 20.3632733,23.8460522 20.6172076,23.584332 C20.8714396,23.3260817 21,23.0233464 21,22.6853493 L21,13.546556 C19.9948646,12.616582 19.0616777,11.7561826 18.2015413,10.9632224 L17.3905716,10.2155184 Z" id="路径"></path>
                                            <path d="M23.998845,10.75143 C23.9850957,10.395943 23.8133629,10.0646722 23.4876381,9.76577563 L22.886573,9.18395502 C22.5847099,8.891728 22.2056439,8.53598331 21.7593394,8.12665365 C21.3454419,7.74964098 20.8756898,7.31025567 20.2811001,6.74403537 C19.7512356,6.23947215 19.1981599,5.7182495 18.6372782,5.1951949 C18.1141848,4.71021082 17.5991635,4.22740218 17.0888732,3.74945971 L16.981008,3.64852988 C16.63358,3.32298399 16.3077074,3.01819082 16.0030057,2.73352066 L15.5036261,2.26659859 C15.0640928,1.8551507 14.6917684,1.50601827 14.3867415,1.21931577 C14.0857949,0.933471992 13.884819,0.750390013 13.7860903,0.671930381 C13.3116664,0.226047285 12.7316835,-1.77635684e-15 12.062493,-1.77635684e-15 L12.0255326,0.000228992607 C11.329494,0.00858734622 10.6975004,0.288706211 10.0942177,0.855613486 C10.0128457,0.93461696 9.71911384,1.20091026 9.239752,1.63448483 C8.76686564,2.06204827 8.2065457,2.57170663 7.5558945,3.16374616 L7.48723682,3.2261761 C6.74462811,3.90471874 5.95323165,4.61832632 5.27685603,5.22679629 L4.42525845,5.99396023 C3.94752288,6.42447198 3.49143134,6.8357195 3.05506185,7.22750236 C2.42428057,7.79383714 1.8748418,8.29121563 1.40618371,8.71517237 L1.25751411,8.85007943 C0.776910415,9.28777594 0.486815488,9.55203687 0.390895812,9.64489459 C0.146099564,9.86822256 0.0148752996,10.1727581 0.000919070947,10.549828 C-0.0131554441,10.9268407 0.134479235,11.25273 0.439831399,11.5182791 C0.703226104,11.7447557 1.00760255,11.8549312 1.36960766,11.8549313 C1.39057162,11.8549313 1.41153555,11.8545305 1.43279519,11.8538149 C1.82584707,11.8398175 2.12966168,11.7453855 2.36198011,11.5643358 C2.43936044,11.5054553 2.65719035,11.3163336 3.06824933,10.9511428 C3.4434715,10.6205876 3.88333003,10.2219635 4.47135548,9.68628554 C5.00464996,9.19800964 5.592498,8.67063274 6.214941,8.11239867 L6.24820538,8.08274374 C6.81828285,7.573572 7.39865011,7.04891442 8.07402043,6.43168534 C8.6517561,5.90373595 9.1645006,5.43861722 9.59835675,5.04932469 C10.0385405,4.65473662 10.3374764,4.38789948 10.4961105,4.2486129 C10.9869153,3.82262381 11.4917355,3.59955344 11.9964669,3.5850981 C12.0150654,3.58455423 12.0337526,3.58426798 12.0521736,3.58426801 C12.5403173,3.58426801 13.0433633,3.80788222 13.5470303,4.24801177 C13.6733758,4.35412262 13.962495,4.61755346 14.3406444,4.97052158 C14.820775,5.41583218 15.3217809,5.87680034 15.8292918,6.34083133 C16.4067318,6.86860899 17.0193581,7.43033522 17.6670229,8.02612458 C17.9385193,8.27507145 18.2023575,8.51723432 18.459129,8.7527563 C18.8175267,9.081823 19.1617317,9.39780833 19.4930449,9.70042601 C19.8434888,10.0204474 20.9585402,11.0367299 20.9585402,11.0367299 C21.3863053,11.4269671 21.6160808,11.627052 21.6898834,11.6850738 C21.9215808,11.879491 22.2334972,11.9848863 22.6175307,11.9985974 C22.6404462,11.9995134 22.6633321,12 22.6859223,12 C23.0389386,12 23.3576261,11.8790331 23.6321681,11.6413642 C23.8931087,11.4022642 24.0132448,11.1113253 23.998845,10.75143 Z" id="路径"></path>
                                        </g>
                                    </g>
                                </g>
                            </g>
                        </g>
                    </g>
                </g>
            </g>
        </g>
    </g>
</svg>