<?xml version="1.0" encoding="UTF-8"?>
<svg width="33px" height="31px" viewBox="0 0 33 31" version="1.1" xmlns="http://www.w3.org/2000/svg" xmlns:xlink="http://www.w3.org/1999/xlink">
    <!-- Generator: Sketch 61.2 (89653) - https://sketch.com -->
    <title>-mockplus-</title>
    <desc>Created with Sketch.</desc>
    <g id="页面" stroke="none" stroke-width="1" fill="none" fill-rule="evenodd">
        <g id="嘉宾首页" transform="translate(-286.000000, -1086.000000)" fill="#DE2D28" fill-rule="nonzero">
            <g id="-mockplus-dup-|C34CED88-3014-46FC-B19D-A591CC9C2D39|通用/导航栏/工作台" transform="translate(0.000000, 1086.000000)">
                <g id="通用/导航栏/工作台">
                    <g id="编组-7">
                        <g id="编组-6" transform="translate(285.000000, 0.000000)">
                            <g id="编组" transform="translate(0.500000, 0.000000)">
                                <g id="-mockplus-dup-|813019A0-76CC-45C4-8332-2EC309C4A6DF|icon/dh/wdyy/未选中" transform="translate(0.500000, 0.000000)">
                                    <g id="icon/dh/wdyy/未选中" transform="translate(6.000000, 3.000000)">
                                        <g id="编组" transform="translate(0.500000, 0.000000)">
                                            <path d="M7.37857142,14.0664222 C3.30513106,14.0704551 0.0039375835,17.3992141 0,21.5066682 C0.0039391593,23.437081 1.55699751,24.9998853 3.47142857,24.9998812 L16.5,24.9998812 C17.4243838,25.007555 18.3136254,24.6431419 18.9706291,23.9874123 C19.6276327,23.3316827 19.9981292,22.4388004 20,21.5066682 C19.9981115,19.5289976 19.2161982,17.6332961 17.8266763,16.237576 C16.4371544,14.8418559 14.5541434,14.0607458 12.5928571,14.0664222 L7.37857142,14.0664222 Z M16.557143,6.61189872 C16.5531895,2.95627478 13.6110634,-0.00396910988 9.9857117,8.88177573e-16 C6.36035996,0.00398510483 3.42462868,2.97067716 3.4285635,6.6263011 C3.43644909,10.2802793 6.37627182,13.238197 10,13.238197 C13.6253517,13.2342171 16.5610807,10.2675227 16.557143,6.61189872 Z M11.6571429,7.89394128 C11.8194438,7.89040188 11.9738739,7.96434131 12.073735,8.09340102 C12.1735961,8.22246072 12.2071631,8.39148735 12.1642857,8.54936887 C11.8782044,9.5302894 10.9854195,10.2039066 9.97142857,10.2039066 C8.95743767,10.2039066 8.06465275,9.5302894 7.77857142,8.54936887 C7.68571428,8.21805384 7.94285714,7.89394128 8.57142857,7.89394128 L11.6571429,7.89394128 Z" id="形状"></path>
                                        </g>
                                    </g>
                                </g>
                            </g>
                        </g>
                    </g>
                </g>
            </g>
        </g>
    </g>
</svg>