<?xml version="1.0" encoding="UTF-8"?>
<svg width="20px" height="20px" viewBox="0 0 20 20" version="1.1" xmlns="http://www.w3.org/2000/svg" xmlns:xlink="http://www.w3.org/1999/xlink">
    <!-- Generator: Sketch 63 (92445) - https://sketch.com -->
    <title>编组 2</title>
    <desc>Created with Sketch.</desc>
    <g id="页面" stroke="none" stroke-width="1" fill="none" fill-rule="evenodd">
        <g id="会务组-车辆接送" transform="translate(-34.000000, -235.000000)">
            <g id="编组-14" transform="translate(12.000000, 213.000000)">
                <g id="编组-3" transform="translate(15.000000, 15.000000)">
                    <g id="编组-2" transform="translate(7.000000, 7.000000)">
                        <circle id="椭圆形" stroke="#FFFFFF" cx="10" cy="10" r="9.5"></circle>
                        <path d="M10,4 C10.5522847,4 11,4.44771525 11,5 L11,11 L11,11 L9,11 L9,5 C9,4.44771525 9.44771525,4 10,4 Z" id="矩形" fill="#FFFFFF"></path>
                        <path d="M12,7 C12.5522847,7 13,7.44771525 13,8 L13,13 L13,13 L11,13 L11,8 C11,7.44771525 11.4477153,7 12,7 Z" id="矩形备份-2" fill="#FFFFFF" transform="translate(12.000000, 10.000000) rotate(-270.000000) translate(-12.000000, -10.000000) "></path>
                    </g>
                </g>
            </g>
        </g>
    </g>
</svg>