<?xml version="1.0" encoding="UTF-8"?>
<svg width="18px" height="18px" viewBox="0 0 18 18" version="1.1" xmlns="http://www.w3.org/2000/svg" xmlns:xlink="http://www.w3.org/1999/xlink">
    <!-- Generator: Sketch 63 (92445) - https://sketch.com -->
    <title>-mockplus-</title>
    <desc>Created with Sketch.</desc>
    <g id="页面" stroke="none" stroke-width="1" fill="none" fill-rule="evenodd">
        <g id="会务组-餐厅" transform="translate(-27.000000, -310.000000)" fill="#000000" fill-rule="nonzero">
            <g id="编组" transform="translate(27.000000, 310.000000)">
                <g id="-mockplus-dup-|5E8A61BB-639A-46F2-BB85-2A3A0E6AFCD2|icons/weather/duoyun">
                    <g id="icons/weather/duoyun">
                        <g>
                            <rect id="矩形" opacity="0" x="0" y="0" width="18" height="18"></rect>
                            <path d="M4.94970411,2.83052491 C5.00519649,2.96716027 5.13679526,3.04999411 5.27569708,3.04999411 C5.3197672,3.04999411 5.3645928,3.04166575 5.40792543,3.02405569 C5.5879114,2.95097124 5.67454066,2.74580234 5.60145621,2.56583436 L5.13506842,1.41749293 C5.06196599,1.23748898 4.85677911,1.15087771 4.6768471,1.22396215 C4.49686113,1.2970466 4.41023187,1.50221551 4.48331632,1.68218348 L4.94970411,2.83052491 Z M1.38077982,5.10065775 L2.5225557,5.58285681 C2.56723741,5.60172602 2.61360997,5.61066595 2.65924503,5.61066595 C2.79638404,5.61066595 2.92670569,5.52997266 2.98340325,5.39569371 C3.05898801,5.21675104 2.97518282,5.01041294 2.79624015,4.93484616 L1.65446427,4.4526471 C1.47552159,4.37708034 1.2691655,4.46084954 1.19361672,4.6398102 C1.11803198,4.81877088 1.20183715,5.02509099 1.38077982,5.10065775 Z M2.76668619,9.21173444 C2.94667216,9.13864999 3.03330141,8.93351707 2.96021696,8.7535311 C2.88711454,8.57354512 2.68196361,8.48682592 2.50199564,8.5600183 L1.35365423,9.02640609 C1.17366826,9.09949054 1.087039,9.30462346 1.16012345,9.48460943 C1.21561583,9.62124479 1.34721461,9.70409661 1.48611642,9.70409661 C1.53018654,9.70409661 1.57499416,9.69575027 1.61834477,9.67812223 L2.76668619,9.21173444 Z M11.4496871,5.65747024 C11.4937572,5.65747024 11.5385649,5.64914188 11.5819155,5.63153182 L12.6964758,5.17886873 C12.8764618,5.10578429 12.963091,4.90061538 12.8900066,4.72064741 C12.8169221,4.54064346 12.6117532,4.45403218 12.4317853,4.52711663 L11.3172249,4.97977972 C11.1372389,5.05286416 11.0506097,5.25803307 11.1236941,5.43800104 C11.1791865,5.5746364 11.3107853,5.65747024 11.4496871,5.65747024 Z M8.73198172,3.06098466 C8.77666344,3.07985386 8.82303599,3.08879379 8.86867105,3.08879379 C9.00581006,3.08879379 9.13613171,3.0081005 9.19282927,2.87382155 L9.67504634,1.73202769 C9.7506311,1.55308502 9.66684389,1.34674692 9.48788323,1.27118014 C9.30888659,1.19561338 9.10258446,1.27938259 9.02703568,1.45834325 L8.54481862,2.60013711 C8.46923386,2.77907978 8.55303905,2.98541788 8.73198172,3.06098466 Z M16.1134211,12.194688 C15.6926324,11.7651752 15.1523327,11.4906274 14.5660922,11.4031527 C14.4429837,9.24891523 12.6914212,7.5237409 10.5259954,7.44067322 C10.5347195,7.3393839 10.5393783,7.23760889 10.5393783,7.13577994 C10.5393783,5.19903306 8.96371861,3.62339133 7.02697173,3.62339133 C5.09022485,3.62339133 3.51458313,5.19903304 3.51458313,7.13577994 C3.51458313,8.1247674 3.9183014,9.03978902 4.62045535,9.69594815 C4.02306238,10.0158792 3.61572855,10.6462079 3.61572855,11.3699472 C3.61572855,11.3994112 3.6164121,11.4289292 3.61781515,11.4583932 C2.45028074,11.7776588 1.60753412,12.853941 1.60753412,14.0925093 C1.60753412,15.5981425 2.8335289,16.823076 4.34049318,16.823076 L14.1699108,16.823076 C14.88802,16.823076 15.5680309,16.5404336 16.0846586,16.0271696 C16.604812,15.510416 16.8913037,14.8256562 16.8913037,14.0990748 C16.8913037,13.3830523 16.615065,12.7067468 16.1134211,12.194688 Z M4.21803218,7.13576196 C4.21803218,5.58690407 5.47813183,4.32682242 7.02697171,4.32682242 C8.57584758,4.32682242 9.83592925,5.58692207 9.83592925,7.13576196 C9.83592925,7.24859946 9.82898596,7.36129304 9.81567497,7.4728534 C8.41660154,7.65557351 7.19798177,8.53055429 6.57882357,9.79901826 C6.26822815,9.58787742 5.89904645,9.47234174 5.51326201,9.47234174 C5.49831415,9.47234174 5.48343823,9.4725576 5.4685803,9.47291736 C4.68328674,8.94972408 4.21803218,8.08528417 4.21803218,7.13576196 Z M15.5888967,15.5281339 C15.204965,15.9095653 14.7010187,16.1196269 14.1699288,16.1196269 L4.34051114,16.1196269 C3.22143587,16.1196269 2.31100116,15.2102714 2.31100116,14.0925093 C2.31100116,13.0844727 3.06258558,12.221292 4.05923585,12.0846566 C4.157845,12.0711657 4.24611114,12.0164828 4.30214316,11.9342066 C4.35817517,11.8519484 4.37672058,11.7497956 4.35321053,11.6530752 C4.33063584,11.5602761 4.31919559,11.4649947 4.31919559,11.3699471 C4.31919559,10.7709533 4.76248704,10.2737164 5.33818672,10.188742 C5.35594068,10.1914762 5.37378458,10.1929871 5.39155652,10.1929871 C5.42814372,10.1929871 5.46444311,10.187231 5.49912359,10.1761326 C5.50385439,10.1760786 5.50853121,10.1757728 5.51327999,10.1757728 C5.87404339,10.1757728 6.21176442,10.3363499 6.43983179,10.6163481 C6.5204891,10.715371 6.64858025,10.7629127 6.77427903,10.7404819 C6.90004976,10.7180511 7.00374945,10.6292274 7.04521134,10.5084033 C7.53122382,9.09218746 8.86437195,8.14065061 10.3625582,8.14065061 C12.2963371,8.14065061 13.8695684,9.71312648 13.8695684,11.645898 C13.8695684,11.6606301 13.8699102,11.6750203 13.8702879,11.6893566 C13.8705218,11.6989441 13.8708995,11.7084956 13.8707017,11.718317 C13.8667623,11.9116319 14.0196047,12.0718852 14.2128657,12.0770837 C14.7431281,12.091366 15.2396275,12.3079752 15.6109138,12.6869962 C15.9829735,13.0667727 16.1878906,13.5682547 16.1878906,14.0990928 C16.1878906,14.6368742 15.9751668,15.1444001 15.5888967,15.5281339 Z" id="形状"></path>
                        </g>
                    </g>
                </g>
            </g>
        </g>
    </g>
</svg>