<?xml version="1.0" encoding="UTF-8"?>
<svg width="12px" height="13px" viewBox="0 0 12 13" version="1.1" xmlns="http://www.w3.org/2000/svg" xmlns:xlink="http://www.w3.org/1999/xlink">
    <!-- Generator: Sketch 63 (92445) - https://sketch.com -->
    <title>编组</title>
    <desc>Created with Sketch.</desc>
    <g id="页面" stroke="none" stroke-width="1" fill="none" fill-rule="evenodd">
        <g id="会务组-车辆接送" transform="translate(-326.000000, -455.000000)" fill="#C7000B" fill-rule="nonzero">
            <g id="编组-14" transform="translate(12.000000, 213.000000)">
                <g id="编组-6" transform="translate(25.000000, 176.000000)">
                    <g id="编组-2" transform="translate(0.000000, 62.000000)">
                        <g id="编组" transform="translate(289.000000, 4.500000)">
                            <path d="M8.5710497,5.29409507 C8.5710497,5.55091696 8.74226429,5.72213155 8.99908618,5.72213155 C9.25590807,5.72213155 9.42712267,5.55091696 9.42712267,5.29409507 C9.42712267,3.89584255 8.28569204,2.75441193 6.88743953,2.75441193 C6.63061764,2.75441193 6.45940304,2.92562652 6.45940304,3.18244841 C6.45940304,3.4392703 6.63061764,3.61048489 6.88743953,3.61048489 C7.82911979,3.61048489 8.5710497,4.38095057 8.5710497,5.29409507 L8.5710497,5.29409507 Z M10.2831956,5.29409507 C10.2831956,5.55091696 10.4544102,5.72213155 10.7112321,5.72213155 C10.968054,5.72213155 11.1392686,5.55091696 11.1392686,5.29409507 C11.1392686,2.98269805 9.25590807,1.07080175 6.91597529,1.07080175 C6.6591534,1.07080175 6.48793881,1.24201635 6.48793881,1.49883824 C6.48793881,1.75566013 6.6591534,1.92687472 6.91597529,1.92687472 C8.74226429,1.92687472 10.2831956,3.4392703 10.2831956,5.29409507 Z M4.5760425,3.81023525 C5.03261475,3.353663 5.08968628,2.64026886 4.6616498,2.12662508 L3.34900458,0.471550676 C2.92096809,-0.0706288711 2.12196666,-0.156236168 1.57978711,0.271800316 C1.55125134,0.328871848 1.49417981,0.328871848 1.49417981,0.357407613 L0.352749188,1.49883824 C-0.731609906,2.58319733 0.809321438,5.55091696 3.63436223,8.37595777 C6.45940303,11.2009986 9.37005114,12.7133941 10.4544102,11.6575708 L11.5958409,10.5161402 C12.1094846,10.0024964 12.1094846,9.20349497 11.5958409,8.74692272 L11.5102336,8.66131542 L9.85515915,7.3486702 C9.34151537,6.92063372 8.62812123,6.97770525 8.17154898,7.4342775 L7.45815484,8.14767164 C6.68768917,7.69109939 6.03136656,7.17745561 5.43211548,6.57820452 C4.86140017,6.00748921 4.37629215,5.3511666 3.89118413,4.58070093 L4.5760425,3.81023525 Z" id="形状"></path>
                        </g>
                    </g>
                </g>
            </g>
        </g>
    </g>
</svg>