<?xml version="1.0" encoding="UTF-8"?>
<svg width="16px" height="16px" viewBox="0 0 16 16" version="1.1" xmlns="http://www.w3.org/2000/svg" xmlns:xlink="http://www.w3.org/1999/xlink">
    <!-- Generator: Sketch 63 (92445) - https://sketch.com -->
    <title>形状结合</title>
    <desc>Created with Sketch.</desc>
    <g id="页面" stroke="none" stroke-width="1" fill="none" fill-rule="evenodd">
        <g id="会务组-酒店列表" transform="translate(-298.000000, -111.000000)" fill="#C7000B" fill-rule="nonzero">
            <g id="列表1备份-3" transform="translate(10.000000, 98.000000)">
                <g id="编组-6" transform="translate(281.000000, 7.000000)">
                    <g id="编组-5" transform="translate(7.000000, 3.000000)">
                        <g id="编组-4" transform="translate(0.000000, 3.000000)">
                            <path d="M16,10.0091409 L16,16 L10.0189843,16 L10.0189843,14 L14,14 L14,10.0091409 L16,10.0091409 Z M2,10.031616 L2,14 L6.02110715,14 L6.02110715,16 L0,16 L0,10.031616 L2,10.031616 Z M16,7 L16,9 L0,9 L0,7 L16,7 Z M6.02421696,0 L6.02421696,2 L2,2 L2,6.04321644 L0,6.04321644 L0,0 L6.02421696,0 Z M16,0 L16,6.0028513 L14,6.0028513 L14,2 L10.0419376,2 L10.0419376,0 L16,0 Z" id="形状结合"></path>
                        </g>
                    </g>
                </g>
            </g>
        </g>
    </g>
</svg>