<?xml version="1.0" encoding="UTF-8"?>
<svg width="33px" height="31px" viewBox="0 0 33 31" version="1.1" xmlns="http://www.w3.org/2000/svg" xmlns:xlink="http://www.w3.org/1999/xlink">
    <!-- Generator: Sketch 63 (92445) - https://sketch.com -->
    <title>-mockplus-</title>
    <desc>Created with Sketch.</desc>
    <g id="页面" stroke="none" stroke-width="1" fill="none" fill-rule="evenodd">
        <g id="会务组-我的行程" transform="translate(-266.000000, -814.000000)" fill="#C7000B" fill-rule="nonzero">
            <g id="-mockplus-dup-|DA041A0E-1B74-476E-A609-CACA132CDAAE|通用/导航栏/工作台" transform="translate(0.000000, 814.000000)">
                <g id="通用/导航栏/工作台">
                    <g id="编组-7">
                        <g id="编组-6" transform="translate(258.000000, 0.000000)">
                            <g id="编组" transform="translate(7.500000, 0.000000)">
                                <g id="-mockplus-dup-|4FC1B40A-4CAE-49E0-A634-1F87BEEC1AF4|icon/dh/wdyy/未选中" transform="translate(0.500000, 0.000000)">
                                    <g id="icon/dh/wdyy/未选中" transform="translate(2.000000, 4.000000)">
                                        <g id="编组">
                                            <path d="M16.4767535,13.0249778 C16.3061357,12.8861334 16.2080184,12.4260889 16.2080184,12.2725778 C16.2080184,11.5998667 16.3723528,11.3686222 16.3723528,11.3686222 C16.3694528,11.3705778 19.0452034,9.88973333 18.9920363,5.2052 C18.9195359,3.33422223 17.7943286,0 14.3278396,0 L14.130155,0 C10.5027149,0 9.53845868,3.33422223 9.46499152,5.2052 C9.41617454,9.61497777 12.0841918,11.3686222 12.0841918,11.3686222 C12.0841918,11.3686222 12.4080272,11.7465333 12.4080272,12.4197333 C12.4080272,12.5727556 12.1508922,12.8856444 11.9802744,13.0249778 C10.4915982,14.2437778 5.12994688,15.4718667 4.78242798,18.0972 C4.51320959,19.2108889 2.92158263,20.9772444 8.21411679,21.6885778 C9.67234285,21.8841334 11.6525723,22 14.3273562,22 C26.6016855,22 24.0641691,19.5653333 23.7190668,18.1377778 C23.3710646,15.5124445 17.9663964,14.2437778 16.4772368,13.0249778 M28.9159004,16.8075111 C28.6307319,14.7287556 24.5528222,13.7231111 23.3323977,12.7580445 C23.1922301,12.6480445 23.1119963,12.2848 23.1119963,12.1635556 C23.1119963,11.6306667 23.2473305,11.4468445 23.2473305,11.4468445 C23.2473304,11.4468445 25.4334612,10.0584 25.392861,6.56626667 C25.3334106,5.08493333 24.411688,2.44444446 21.5720863,2.44444446 L21.410652,2.44444446 C20.7982647,2.44444446 20.2839947,2.5612889 19.8446418,2.75195557 C20.4521958,4.79111113 21.1820338,8.53355557 18.1104307,11.0415556 C16.9054729,12.8431111 20.9195821,13.8996 20.2951114,13.618 C23.9278682,15.2552889 24.9056578,16.5112444 25.1719762,17.8092445 C25.394311,18.8931111 25.5199785,19.5555556 25.5199785,19.5555556 C25.5199785,19.5555556 28.2411627,19.1390222 28.9453839,18.6100445 C28.9758341,18.0321778 29.0657347,17.4083556 28.9159004,16.8075111 M9.27697364,13.1814222 C9.50897514,13.0929333 9.79027696,13.0117778 10.1252291,12.7986222 C10.6124323,12.4881778 10.9879847,11.8482222 10.0817288,11.0640445 C7.08310949,6.68702223 8.17496653,3.77862223 8.63026947,2.68302223 C8.212604,2.52126988 7.76860895,2.44033982 7.32139437,2.4442958 L7.16576002,2.4442958 C4.2961915,2.4442958 3.53348658,5.08835557 3.4754862,6.57115557 C3.4368193,10.0681778 5.54706623,11.4585778 5.54706623,11.4585778 C5.54706623,11.4585778 5.67853374,11.6424 5.67853376,12.1757778 C5.67853376,12.2970222 5.60023326,12.6612445 5.46538239,12.7712445 C4.2870081,13.7377778 0.356516075,14.7448889 0.0814976434,16.8256 C-0.0635032924,17.4269333 0.0234972691,18.0522222 0.0515307644,18.6310667 C0.694851602,19.1312 2.75579822,19.5555556 2.75579822,19.5555556 C2.75579822,19.5555556 2.92689932,19.0290222 3.10090044,18.1588 C3.35706875,16.8720444 5.07581319,14.7903556 9.27697364,13.1819111" id="形状"></path>
                                        </g>
                                    </g>
                                </g>
                            </g>
                        </g>
                    </g>
                </g>
            </g>
        </g>
    </g>
</svg>
