<?xml version="1.0" encoding="UTF-8"?>
<svg width="33px" height="31px" viewBox="0 0 33 31" version="1.1" xmlns="http://www.w3.org/2000/svg" xmlns:xlink="http://www.w3.org/1999/xlink">
    <!-- Generator: Sketch 63 (92445) - https://sketch.com -->
    <title>-mockplus-</title>
    <desc>Created with Sketch.</desc>
    <g id="页面" stroke="none" stroke-width="1" fill="none" fill-rule="evenodd">
        <g id="会务组-我的行程" transform="translate(-171.000000, -814.000000)" fill="#C7000B" fill-rule="nonzero">
            <g id="-mockplus-dup-|721253C7-5DD1-4E3D-B6C3-8B418F2D4BC4|通用/导航栏/工作台" transform="translate(0.000000, 814.000000)">
                <g id="通用/导航栏/工作台">
                    <g id="编组-7">
                        <g id="编组-5备份" transform="translate(163.000000, 0.000000)">
                            <g id="编组" transform="translate(7.500000, 0.000000)">
                                <g id="-mockplus-dup-|66DD0E08-4AB2-40E5-B71D-149DE08DF13A|icon/dh/sy/选中" transform="translate(0.500000, 0.000000)">
                                    <g id="icon/dh/sy/选中" transform="translate(3.000000, 3.000000)">
                                        <path d="M0,9.20151796 C5.49947368,5.1668221 10.7502632,3.37264877 15.7495263,3.82275934 L15.7495263,24 L0,24 L0,9.20151796 Z M5.99968421,14.5150795 L9.75126316,14.5150795 L9.75126316,9.80709847 L5.99968421,9.80709847 L5.99968421,14.5150795 Z M5.99968421,16.5324274 L5.99968421,21.2404085 L9.75126316,21.2404085 L9.75126316,16.5324274 L5.99968421,16.5324274 Z M27,4.49353693 C25.4993684,0.458841073 22.2494211,-0.337178491 17.2501579,0.111678289 L17.2501579,23.9987462 L27,23.9987462 L27,4.49353693 Z" id="形状"></path>
                                    </g>
                                </g>
                            </g>
                        </g>
                    </g>
                </g>
            </g>
        </g>
    </g>
</svg>
