<?xml version="1.0" encoding="UTF-8"?>
<svg width="34px" height="31px" viewBox="0 0 34 31" version="1.1" xmlns="http://www.w3.org/2000/svg" xmlns:xlink="http://www.w3.org/1999/xlink">
    <!-- Generator: Sketch 63 (92445) - https://sketch.com -->
    <title>-mockplus-</title>
    <desc>Created with Sketch.</desc>
    <g id="页面" stroke="none" stroke-width="1" fill="none" fill-rule="evenodd">
        <g id="会务组-我的行程" transform="translate(-76.000000, -814.000000)" fill="#C4C6CF" fill-rule="nonzero">
            <g id="-mockplus-dup-|DA041A0E-1B74-476E-A609-CACA132CDAAE|通用/导航栏/工作台" transform="translate(0.000000, 814.000000)">
                <g id="通用/导航栏/工作台">
                    <g id="编组-7">
                        <g id="编组-5" transform="translate(69.000000, 0.000000)">
                            <g id="编组" transform="translate(7.500000, 0.000000)">
                                <g id="-mockplus-dup-|C9344313-F268-4DD6-BBCD-BCCA80239547|icon/dh/sy/选中">
                                    <g id="icon/dh/sy/选中" transform="translate(4.000000, 3.000000)">
                                        <path d="M5.571,1.84615385 L5.57142857,5.30769231 C5.57142857,6.45474525 6.50683365,7.38461538 7.66071429,7.38461538 C8.81459492,7.38461538 9.75,6.45474525 9.75,5.30769231 L9.75,1.84615385 L16.25,1.84615385 L16.25,5.30769231 C16.25,6.45474525 17.1854051,7.38461538 18.3392857,7.38461538 C19.4931664,7.38461538 20.4285714,6.45474525 20.4285714,5.30769231 L20.428,1.84615385 L23,1.84615385 C24.6568542,1.84615385 26,3.1892996 26,4.84615385 L26,21 C26,22.6568542 24.6568542,24 23,24 L3,24 C1.34314575,24 2.02906125e-16,22.6568542 0,21 L0,4.84615385 C-2.02906125e-16,3.1892996 1.34314575,1.84615385 3,1.84615385 L5.571,1.84615385 Z M19,15 L7,15 C6.17157288,15 5.5,15.6715729 5.5,16.5 C5.5,17.3284271 6.17157288,18 7,18 L7,18 L19,18 C19.8284271,18 20.5,17.3284271 20.5,16.5 C20.5,15.6715729 19.8284271,15 19,15 L19,15 Z M7.66071429,0 C8.30175908,-1.17758019e-16 8.82142857,0.519669487 8.82142857,1.16071429 L8.82142857,5.30082418 C8.82142857,5.94186897 8.30175908,6.46153846 7.66071429,6.46153846 C7.01966949,6.46153846 6.5,5.94186897 6.5,5.30082418 L6.5,1.16071429 C6.5,0.519669487 7.01966949,1.17758019e-16 7.66071429,0 Z M18.3392857,0 C18.9803305,-1.17758019e-16 19.5,0.519669487 19.5,1.16071429 L19.5,5.30082418 C19.5,5.94186897 18.9803305,6.46153846 18.3392857,6.46153846 C17.6982409,6.46153846 17.1785714,5.94186897 17.1785714,5.30082418 L17.1785714,1.16071429 C17.1785714,0.519669487 17.6982409,1.17758019e-16 18.3392857,0 Z" id="形状结合"></path>
                                    </g>
                                </g>
                            </g>
                        </g>
                    </g>
                </g>
            </g>
        </g>
    </g>
</svg>
