<?xml version="1.0" encoding="UTF-8"?>
<svg width="34px" height="31px" viewBox="0 0 34 31" version="1.1" xmlns="http://www.w3.org/2000/svg" xmlns:xlink="http://www.w3.org/1999/xlink">
    <!-- Generator: Sketch 63 (92445) - https://sketch.com -->
    <title>-mockplus-</title>
    <desc>Created with Sketch.</desc>
    <g id="页面" stroke="none" stroke-width="1" fill="none" fill-rule="evenodd">
        <g id="会务组-车辆接送-行程详情" transform="translate(-56.000000, -977.000000)" fill="#C7000B" fill-rule="nonzero">
            <g id="-mockplus-dup-|64CDC0C0-6E6A-4A33-AFE0-76A82BFC6083|通用/导航栏/工作台" transform="translate(0.000000, 967.000000)">
                <g id="通用/导航栏/工作台">
                    <g id="编组-7">
                        <g id="编组-5" transform="translate(49.000000, 10.000000)">
                            <g id="编组" transform="translate(7.500000, 0.000000)">
                                <g id="-mockplus-dup-|BC620343-6488-49A7-802A-5526048BEC12|icon/dh/sy/选中">
                                    <g id="icon/dh/sy/选中" transform="translate(5.000000, 3.000000)">
                                        <g id="编组">
                                            <path d="M4.57016646,1.72051516 L4.57016646,3.64702398 C4.57016646,4.47333943 5.2930399,5.14515963 6.18778533,5.14515963 L17.7360675,5.14515963 C18.6282854,5.14515963 19.3536864,4.47568026 19.3536864,3.64702398 L19.3536864,1.72051516 L20.6705292,1.72051516 C22.4574926,1.72051516 23.905767,3.06181474 23.905767,4.71678647 L23.905767,20.9738991 C23.905767,22.6288709 22.4574926,23.9701705 20.6705292,23.9701705 L3.25585114,23.9701705 C1.4688878,23.9701705 0.0206134069,22.6288709 0.0206134069,20.9738991 L0.0206134069,4.71678647 C0.0206134069,3.06181474 1.4688878,1.72051516 3.25585114,1.72051516 L4.57016646,1.72051516 L4.57016646,1.72051516 Z M4.57016646,10.2786151 L19.3536864,10.2786151 L19.3536864,8.56746327 L4.57269399,8.56746327 L4.57016646,10.2786151 L4.57016646,10.2786151 Z M4.57016646,15.4120705 L19.3536864,15.4120705 L19.3536864,13.7009187 L4.57269399,13.7009187 L4.57016646,15.4120705 L4.57016646,15.4120705 Z M4.57016646,20.545526 L19.3536864,20.545526 L19.3536864,18.8343742 L4.57269399,18.8343742 L4.57016646,20.545526 L4.57016646,20.545526 Z M8.03288185,0.00936334783 L15.8884435,0.00936334783 C16.7806614,0.00936334783 17.5060623,0.678842718 17.5060623,1.507499 L17.5060623,1.93587216 C17.5060623,2.76218761 16.7831889,3.43400782 15.8884435,3.43400782 L8.03288185,3.43400782 C7.14066394,3.43400782 6.41526298,2.76452845 6.41526298,1.93587216 L6.41526298,1.507499 C6.41526298,0.678842718 7.13813641,0.00936334783 8.03288185,0.00936334783 L8.03288185,0.00936334783 Z" id="形状"></path>
                                        </g>
                                    </g>
                                </g>
                            </g>
                        </g>
                    </g>
                </g>
            </g>
        </g>
    </g>
</svg>