<?xml version="1.0" encoding="UTF-8"?>
<svg width="48px" height="48px" viewBox="0 0 48 48" version="1.1" xmlns="http://www.w3.org/2000/svg" xmlns:xlink="http://www.w3.org/1999/xlink">
    <!-- Generator: Sketch 63 (92445) - https://sketch.com -->
    <title>-mockplus-</title>
    <desc>Created with Sketch.</desc>
    <defs>
        <linearGradient x1="50%" y1="0%" x2="50%" y2="98.6196157%" id="linearGradient-1">
            <stop stop-color="#FF6D50" offset="0%"></stop>
            <stop stop-color="#C7000B" offset="100%"></stop>
        </linearGradient>
        <path d="M24,0 C37.254834,0 48,10.745166 48,24 C48,37.254834 37.254834,48 24,48 C10.745166,48 0,37.254834 0,24 C0,10.745166 10.745166,0 24,0 Z M38.4,27.2 L35.9994593,27.2 L35.9994593,34.4058394 L35.9981618,34.4071371 C35.9960192,35.28611 35.2836565,35.9979246 34.4047218,35.9993512 L27.9998198,35.9993512 L27.9998198,38.4 L36.2589772,38.4 C37.4414314,38.4 38.4,37.4413883 38.4,36.2588808 L38.4,27.2 Z M12.0005407,27.2 L9.6,27.2 L9.6,36.2575831 C9.6,37.4410381 10.5589187,38.3987024 11.7410228,38.3987024 L19.9988826,38.3987024 L19.9988826,35.9993512 L13.592683,35.9993512 C12.713243,35.9979223 12.0006719,35.2853191 11.9992431,34.4058394 L12.0005407,34.4058394 L12.0005407,27.2 Z M37.6422077,22.3999898 L10.3551971,22.3999898 C9.93778059,22.4028489 9.60070261,22.7416796 9.6,23.1591241 L9.6,24.0402271 C9.6,24.4658556 9.93737328,24.7993512 10.3551971,24.7993512 L37.6435053,24.7993512 C38.0609218,24.7965023 38.3979998,24.4576715 38.3987305,24.0402271 L38.3987305,23.1591241 C38.4004414,22.9577142 38.321382,22.764011 38.1792089,22.6213438 C38.0370358,22.4786766 37.8436132,22.3989507 37.6422077,22.3999898 Z M19.9975851,9.6 L11.7410228,9.6 C10.5585685,9.6 9.6,10.5586117 9.6,11.7411192 L9.6,19.2 L12.0005407,19.2 L12.0005407,13.5928629 C12.0026773,12.7149001 12.7134642,12.0035014 13.5913855,12.0006488 L19.9975851,12.0006488 L19.9975851,9.6 Z M36.2576797,9.6 L27.9985222,9.6 L27.9985222,12.0006488 L34.4047218,12.0006488 C35.2836565,12.0020754 35.9960192,12.71389 35.9981618,13.5928629 L35.9981618,19.1987023 L38.3987024,19.1987023 L38.3987024,11.7411192 C38.3987024,10.5586117 37.4401339,9.6 36.2576797,9.6 Z" id="path-2"></path>
        <filter x="-14.6%" y="-10.4%" width="129.2%" height="129.2%" filterUnits="objectBoundingBox" id="filter-3">
            <feOffset dx="0" dy="2" in="SourceAlpha" result="shadowOffsetOuter1"></feOffset>
            <feGaussianBlur stdDeviation="2" in="shadowOffsetOuter1" result="shadowBlurOuter1"></feGaussianBlur>
            <feColorMatrix values="0 0 0 0 0.968627451   0 0 0 0 0.337254902   0 0 0 0 0.321568627  0 0 0 0.1 0" type="matrix" in="shadowBlurOuter1"></feColorMatrix>
        </filter>
    </defs>
    <g id="页面" stroke="none" stroke-width="1" fill="none" fill-rule="evenodd">
        <g id="会务组-车辆接送-行程详情" transform="translate(-164.000000, -974.000000)">
            <g id="-mockplus-dup-|64CDC0C0-6E6A-4A33-AFE0-76A82BFC6083|通用/导航栏/工作台" transform="translate(0.000000, 967.000000)">
                <g id="通用/导航栏/工作台">
                    <g id="-mockplus-dup-|E68F5426-9562-4426-9D80-EFB96A71E5A0|icon/dh/sys" transform="translate(164.000000, 7.000000)">
                        <g id="icon/dh/sys">
                            <g id="形状结合">
                                <g>
                                    <use fill="black" fill-opacity="1" filter="url(#filter-3)" xlink:href="#path-2"></use>
                                    <use fill="url(#linearGradient-1)" fill-rule="evenodd" xlink:href="#path-2"></use>
                                </g>
                            </g>
                        </g>
                    </g>
                </g>
            </g>
        </g>
    </g>
</svg>