<?xml version="1.0" encoding="UTF-8"?>
<svg width="15px" height="15px" viewBox="0 0 15 15" version="1.1" xmlns="http://www.w3.org/2000/svg" xmlns:xlink="http://www.w3.org/1999/xlink">
    <!-- Generator: Sketch 63 (92445) - https://sketch.com -->
    <title>编组</title>
    <desc>Created with Sketch.</desc>
    <g id="页面" stroke="none" stroke-width="1" fill="none" fill-rule="evenodd">
        <g id="会务组-我的行程" transform="translate(-15.000000, -177.000000)" fill="#7D7E80" fill-rule="nonzero">
            <g id="编组-8" transform="translate(0.000000, 132.000000)">
                <g id="编组" transform="translate(15.000000, 45.000000)">
                    <path d="M8.619675,1.39695 C8.725725,1.39695 8.827275,1.434825 8.9019,1.501725 C8.9769,1.569075 9.0187504,1.659825 9.0187504,1.755075 L9.0187504,13.21335 C9.0189,13.30815 8.9769,13.399125 8.9019,13.4667 C8.82735,13.5336 8.725725,13.571325 8.619675,13.571475 C8.5839,13.576725 8.547525,13.576725 8.51175,13.571475 L4.848975,10.40235 L4.749675,10.3131 L4.625625,10.234275 C4.318425,10.073625 3.96795,9.98955 3.611325,9.9909 L1.829775,9.9909 C1.723275,9.990225 1.621275,9.952125 1.5465,9.884925 C1.47165,9.81765 1.430025,9.726825 1.43069192,9.6324 L1.43069192,5.336025 C1.43069192,5.138475 1.6092,4.9779 1.829775,4.9779 L3.611325,4.9779 C3.96795,4.9794 4.318425,4.8954 4.625625,4.7349 L4.749675,4.670025 L4.849425,4.580775 L7.908375,1.91895 L8.5077,1.3974 C8.54496053,1.39172994 8.58286447,1.39172994 8.620125,1.3974 L8.619675,1.39695 L8.619675,1.39695 Z M8.706675,0.00045 C8.414175,0.001575 8.127525,0.074175 7.8777,0.210225 L3.93885,3.649125 C3.8109959,3.71683236 3.66876873,3.75289067 3.5241,3.754275 L1.658475,3.754275 C0.742725,3.754275 0,4.4259 0,5.2539 L0,9.7503 C0,10.1478 0.174975,10.52955 0.48615,10.81065 C0.795525,11.0913 1.217775,11.249475 1.658475,11.249925 L3.50775,11.249925 C3.653775,11.251575 3.797025,11.287425 3.9225,11.355 L7.8777,14.79015 C8.12775,14.9262 8.414175,14.998725 8.706675,15 C9.622425,15 10.36515,14.328375 10.36515,13.5 L10.36515,1.500375 C10.3647,0.671625 9.6225,0 8.70675,0 L8.70675,0.00045 L8.706675,0.00045 Z M14.367525,6.766275 L12.26115,6.766275 C12.0932906,6.76683576 11.9323142,6.83305685 11.81265,6.950775 C11.694538,7.06693311 11.6283794,7.22589228 11.6291925,7.39155 C11.6285202,7.55709971 11.6947263,7.71590788 11.8128,7.83195 C11.9324512,7.94957701 12.0933638,8.01574015 12.26115,8.0163 L14.367525,8.0163 C14.5354199,8.01587806 14.696482,7.94976267 14.81625,7.8321 C14.9344161,7.71604656 15.0006808,7.55717358 15.0000072,7.39155 C15.0008014,7.2258444 14.9345858,7.06685123 14.8164,6.9507 C14.696631,6.8329187 14.5355037,6.76671784 14.367525,6.766275 L14.367525,6.766275 Z M14.180025,2.52717728 C14.0732115,2.52843693 13.9687699,2.55885911 13.878,2.615175 L12.105,3.713475 C11.86365,3.8631 11.7465,4.168125 11.8191,4.457475 C11.89215,4.746375 12.137175,4.94625 12.41535,4.94387138 C12.5222859,4.94257507 12.6268447,4.91213061 12.71775,4.8558 L14.49075,3.7575 C14.7321,3.60795 14.84925,3.302925 14.7762,3.0135 C14.7036,2.724675 14.458575,2.524725 14.17995,2.52717728 L14.180025,2.52717728 Z M12.449775,9.64851894 C12.154575,9.64725 11.89575,9.847275 11.820525,10.1349 C11.743275,10.42305 11.866875,10.727775 12.122325,10.8789 L13.993575,11.9772 C14.0903508,12.0337827 14.2002267,12.0641084 14.312325,12.0651818 C14.607525,12.066525 14.86635,11.8665 14.941575,11.578875 C15.0189,11.2908 14.895525,10.98615 14.640225,10.834875 L12.768975,9.75855 C12.6720484,9.70200103 12.5620611,9.67168023 12.44985,9.670575 L12.44985,9.64851894 L12.449775,9.64851894 Z" id="形状"></path>
                </g>
            </g>
        </g>
    </g>
</svg>