<?xml version="1.0" encoding="UTF-8"?>
<svg width="15px" height="17px" viewBox="0 0 15 17" version="1.1" xmlns="http://www.w3.org/2000/svg" xmlns:xlink="http://www.w3.org/1999/xlink">
    <!-- Generator: Sketch 63 (92445) - https://sketch.com -->
    <title>-mockplus-</title>
    <desc>Created with Sketch.</desc>
    <g id="页面" stroke="none" stroke-width="1" fill="none" fill-rule="evenodd">
        <g id="登录" transform="translate(-40.000000, -404.000000)" fill="#595B64" fill-rule="nonzero">
            <g id="编组-4备份" transform="translate(40.000000, 399.998697)">
                <g id="编组-3">
                    <g id="-mockplus-dup-|E0661167-82B5-4B69-85EC-89A3259E03A7|icon/mm" transform="translate(0.000000, 4.500000)">
                        <g id="icon/mm" transform="translate(0.000000, 1.000000)">
                            <g id="编组">
                                <path d="M10.7006836,6.58740234 C10.7006836,6.90234375 10.9101562,7.11328125 11.2265625,7.11328125 C11.5415039,7.11328125 11.7524414,6.90380859 11.7524414,6.58740234 C11.7480469,4.84863281 10.3388672,3.43945312 8.59863281,3.43359375 C8.28369141,3.43359375 8.07275391,3.64306641 8.07275391,3.95947266 C8.07275391,4.27587891 8.28369141,4.48535156 8.59863281,4.48535156 C9.75878906,4.48681641 10.6977539,5.42724609 10.7006836,6.58740234 Z M12.8041992,6.58740234 C12.8041992,6.90234375 13.0136719,7.11328125 13.3300781,7.11328125 C13.6464844,7.11328125 13.855957,6.90380859 13.855957,6.58740234 C13.855957,3.69726562 11.4902344,1.33154297 8.60009766,1.33154297 C8.28515625,1.33154297 8.07421875,1.54248047 8.07421875,1.85742187 C8.07421875,2.17236328 8.28515625,2.38330078 8.60009766,2.38330078 C10.9116211,2.38183594 12.8041992,4.27441406 12.8041992,6.58740234 L12.8041992,6.58740234 Z M5.70849609,4.74755859 C6.28710938,4.17041016 6.33984375,3.27539063 5.81396484,2.64550781 L4.18505859,0.596191406 C3.65917969,-0.0864257812 2.66162109,-0.191894531 1.97753906,0.332519531 C1.92480469,0.385253906 1.87353516,0.385253906 1.87353516,0.437988281 L0.454101562,1.85742188 C-0.912597656,3.22412109 1.03271484,6.90234375 4.55419922,10.4238281 C8.07421875,13.9453125 11.699707,15.8378906 13.0664062,14.5239258 L14.4858398,13.1044922 C15.1171875,12.4731445 15.1171875,11.4755859 14.4858398,10.8969727 L14.3818359,10.7915039 L12.3310547,9.16259766 C11.7011719,8.63671875 10.8076172,8.68945313 10.2290039,9.26806641 L9.33544922,10.1616211 C8.38916016,9.58300781 7.54833984,8.95166016 6.81152344,8.21630859 C6.07617187,7.47949219 5.44628906,6.63867188 4.86767578,5.69238281 L5.70849609,4.74755859 Z" id="形状"></path>
                            </g>
                        </g>
                    </g>
                </g>
            </g>
        </g>
    </g>
</svg>