<?xml version="1.0" encoding="UTF-8"?>
<svg width="14px" height="17px" viewBox="0 0 14 17" version="1.1" xmlns="http://www.w3.org/2000/svg" xmlns:xlink="http://www.w3.org/1999/xlink">
    <!-- Generator: Sketch 63 (92445) - https://sketch.com -->
    <title>-mockplus-</title>
    <desc>Created with Sketch.</desc>
    <g id="页面" stroke="none" stroke-width="1" fill="none" fill-rule="evenodd">
        <g id="登录" transform="translate(-40.000000, -353.000000)" fill="#595B64" fill-rule="nonzero">
            <g id="编组-4" transform="translate(40.000000, 349.000000)">
                <g id="编组-3">
                    <g id="-mockplus-dup-|3DE22EFE-1CC4-4490-A033-272423499318|icon/gzzh" transform="translate(0.000000, 4.500000)">
                        <g id="icon/gzzh">
                            <g id="编组">
                                <path d="M0,0 L1,0 L1,16 L0,16 L0,0 Z M2,0 L5,0 L5,16 L2,16 L2,0 Z M6,0 L7,0 L7,16 L6,16 L6,0 Z M8,0 L10,0 L10,16 L8,16 L8,0 Z M11,0 L12,0 L12,16 L11,16 L11,0 Z M13,0 L14,0 L14,16 L13,16 L13,0 Z" id="形状"></path>
                            </g>
                        </g>
                    </g>
                </g>
            </g>
        </g>
    </g>
</svg>